<svg width="20" height="20" viewBox="0 0 20 20" fill="none" xmlns="http://www.w3.org/2000/svg">
<path d="M8.33333 13.3333C8.75 13.5833 9.33333 13.75 10 13.75C10.6667 13.75 11.25 13.5833 11.6667 13.3333M12.5 10H12.5083" stroke="#FD7103" stroke-width="1.66667" stroke-linecap="round" stroke-linejoin="round"/>
<path d="M16.15 5.6775C16.7343 6.527 17.1371 7.48783 17.3333 8.5C17.9083 8.77848 18.2735 9.36113 18.2735 10C18.2735 10.6389 17.9083 11.2215 17.3333 11.5C16.592 14.9576 13.5362 17.4277 10 17.4277C6.4638 17.4277 3.40801 14.9576 2.66667 11.5C2.09168 11.2215 1.72648 10.6389 1.72648 10C1.72648 9.36113 2.09168 8.77848 2.66667 8.5C3.37831 5.01363 6.44175 2.50718 10 2.5C11.6667 2.5 12.9167 3.41667 12.9167 4.58333C12.9167 5.75 12.1667 6.66667 11.25 6.66667C10.5833 6.66667 10 6.33333 10 5.83333M7.5 10H7.50833" stroke="#FD7103" stroke-width="1.66667" stroke-linecap="round" stroke-linejoin="round"/>
</svg>
