<svg width="29" height="28" viewBox="0 0 29 28" fill="none" xmlns="http://www.w3.org/2000/svg">
<path d="M16.3833 2.33333H7.75C6.4622 2.33333 5.41667 3.37886 5.41667 4.66667V23.3333C5.41667 24.6211 6.4622 25.6667 7.75 25.6667H21.75C23.0378 25.6667 24.0833 24.6211 24.0833 23.3333V14.7M3.08333 7H7.75M3.08333 11.6667H7.75M3.08333 16.3333H7.75M3.08333 21H7.75" stroke="#FD7103" stroke-width="2.33333" stroke-linecap="round" stroke-linejoin="round"/>
<path d="M25.691 6.56367C26.317 5.93762 26.5615 5.02513 26.3324 4.16993C26.1032 3.31474 25.4353 2.64675 24.5801 2.4176C23.7249 2.18845 22.8124 2.43295 22.1863 3.059L16.3413 8.90633C16.064 9.18356 15.8609 9.52622 15.751 9.90267L14.7745 13.251C14.7149 13.4555 14.7714 13.6762 14.922 13.8268C15.0726 13.9774 15.2934 14.034 15.4978 13.9743L18.8462 12.9978C19.2226 12.8879 19.5653 12.6849 19.8425 12.4075" stroke="#FD7103" stroke-width="2.33333" stroke-linecap="round" stroke-linejoin="round"/>
</svg>
