<svg width="20" height="20" viewBox="0 0 20 20" fill="none" xmlns="http://www.w3.org/2000/svg">
<path d="M9.16667 1.66667V3.33333M4.16667 1.66667V3.33333M4.16667 2.5H3.33333C2.41347 2.5 1.66667 3.24681 1.66667 4.16667V7.5C1.66667 10.2596 3.90709 12.5 6.66667 12.5C9.42624 12.5 11.6667 10.2596 11.6667 7.5V4.16667C11.6667 3.24681 10.9199 2.5 10 2.5H9.16667" stroke="#FD7103" stroke-width="1.66667" stroke-linecap="round" stroke-linejoin="round"/>
<path d="M6.66667 12.5C6.66667 15.2596 8.90709 17.5 11.6667 17.5C14.4262 17.5 16.6667 15.2596 16.6667 12.5V10" stroke="#FD7103" stroke-width="1.66667" stroke-linecap="round" stroke-linejoin="round"/>
<path d="M15 8.33333C15 9.25319 15.7468 10 16.6667 10C17.5865 10 18.3333 9.25319 18.3333 8.33333C18.3333 7.41347 17.5865 6.66667 16.6667 6.66667C15.7468 6.66667 15 7.41347 15 8.33333" stroke="#FD7103" stroke-width="1.66667" stroke-linecap="round" stroke-linejoin="round"/>
</svg>
