<svg width="29" height="28" viewBox="0 0 29 28" fill="none" xmlns="http://www.w3.org/2000/svg">
<path d="M13.6032 3.283C13.7063 2.73083 14.1883 2.33054 14.75 2.33054C15.3117 2.33054 15.7937 2.73083 15.8968 3.283L17.123 9.76733C17.3012 10.7108 18.0392 11.4488 18.9827 11.627L25.467 12.8532C26.0192 12.9563 26.4195 13.4383 26.4195 14C26.4195 14.5617 26.0192 15.0437 25.467 15.1468L18.9827 16.373C18.0392 16.5512 17.3012 17.2892 17.123 18.2327L15.8968 24.717C15.7937 25.2692 15.3117 25.6695 14.75 25.6695C14.1883 25.6695 13.7063 25.2692 13.6032 24.717L12.377 18.2327C12.1988 17.2892 11.4608 16.5512 10.5173 16.373L4.033 15.1468C3.48083 15.0437 3.08054 14.5617 3.08054 14C3.08054 13.4383 3.48083 12.9563 4.033 12.8532L10.5173 11.627C11.4608 11.4488 12.1988 10.7108 12.377 9.76733M24.0833 2.33333V7M26.4167 4.66667H21.75" stroke="#FD7103" stroke-width="2.33333" stroke-linecap="round" stroke-linejoin="round"/>
<path d="M3.08333 23.3333C3.08333 24.6211 4.12886 25.6667 5.41667 25.6667C6.70447 25.6667 7.75 24.6211 7.75 23.3333C7.75 22.0455 6.70447 21 5.41667 21C4.12886 21 3.08333 22.0455 3.08333 23.3333" stroke="#FD7103" stroke-width="2.33333" stroke-linecap="round" stroke-linejoin="round"/>
</svg>
